<?xml version="1.0" standalone="no"?>
<!DOCTYPE svg PUBLIC "-//W3C//DTD SVG 20010904//EN"
 "http://www.w3.org/TR/2001/REC-SVG-20010904/DTD/svg10.dtd">
<svg version="1.0" xmlns="http://www.w3.org/2000/svg"
 width="1034.000000pt" height="1034.000000pt" viewBox="0 0 1034.000000 1034.000000"
 preserveAspectRatio="xMidYMid meet">
<metadata>
Created by potrace 1.11, written by Peter Selinger 2001-2013
</metadata>
<g transform="translate(0.000000,1034.000000) scale(0.100000,-0.100000)"
fill="#000000" stroke="none">
<path d="M4976 9852 c-2 -1 -28 -4 -59 -6 -31 -2 -60 -6 -64 -9 -5 -3 -32 -7
-61 -9 -29 -2 -52 -6 -52 -10 0 -5 -9 -8 -19 -8 -11 0 -23 -5 -26 -11 -4 -6
-13 -8 -21 -5 -8 3 -14 1 -14 -4 0 -5 -16 -7 -35 -6 -19 2 -35 0 -35 -4 0 -5
-20 -7 -46 -6 -25 1 -47 -1 -49 -5 -3 -3 -19 -7 -37 -7 -18 0 -35 -1 -38 -2
-7 -3 -51 -9 -85 -12 -16 -2 -33 -6 -36 -10 -3 -5 -17 -9 -32 -10 -15 -1 -27
-6 -27 -10 0 -4 -9 -8 -19 -8 -11 0 -23 -5 -26 -10 -4 -6 -11 -8 -16 -5 -5 4
-9 1 -9 -5 0 -7 -6 -10 -14 -7 -8 3 -16 2 -18 -3 -3 -9 -47 -21 -85 -24 -13 0
-23 -5 -23 -10 0 -4 -6 -6 -13 -3 -7 3 -21 -1 -31 -9 -11 -7 -23 -11 -27 -8
-5 3 -9 0 -9 -6 0 -6 -6 -10 -12 -9 -7 1 -25 -1 -39 -5 -14 -4 -32 -8 -41 -10
-9 -1 -23 -8 -32 -15 -9 -7 -16 -11 -16 -7 0 4 -10 0 -23 -9 -13 -8 -27 -12
-30 -8 -4 3 -7 2 -7 -4 0 -10 -46 -28 -62 -25 -5 1 -8 -3 -8 -9 0 -5 -4 -7
-10 -4 -5 3 -10 1 -10 -5 0 -6 -4 -8 -10 -5 -5 3 -10 1 -10 -5 0 -6 -4 -8 -10
-5 -5 3 -10 1 -10 -5 0 -6 -4 -8 -10 -5 -5 3 -10 1 -10 -5 0 -6 -4 -8 -10 -5
-5 3 -10 1 -10 -5 0 -6 -4 -8 -10 -5 -5 3 -10 1 -10 -5 0 -6 -4 -8 -10 -5 -5
3 -10 1 -10 -5 0 -6 -4 -8 -10 -5 -5 3 -10 1 -10 -5 0 -6 -4 -9 -9 -5 -5 3
-12 1 -16 -5 -4 -6 -11 -8 -16 -5 -5 4 -9 1 -9 -5 0 -7 -7 -10 -15 -6 -8 3
-15 1 -15 -4 0 -6 -3 -9 -8 -7 -12 4 -92 -35 -92 -45 0 -5 -5 -6 -10 -3 -6 3
-13 -1 -16 -9 -3 -9 -10 -13 -15 -10 -5 3 -9 0 -9 -6 0 -6 -4 -8 -10 -5 -5 3
-10 1 -10 -5 0 -6 -4 -8 -10 -5 -5 3 -10 1 -10 -4 0 -6 -4 -10 -9 -9 -4 2 -39
-17 -77 -42 -37 -25 -71 -45 -75 -45 -4 0 -20 -11 -36 -25 -15 -13 -30 -24
-33 -24 -12 1 -70 -39 -70 -48 0 -5 -4 -7 -9 -3 -6 3 -14 -3 -20 -12 -6 -10
-11 -14 -11 -10 0 9 -59 -33 -100 -71 -14 -13 -42 -33 -62 -44 -21 -12 -38
-26 -38 -30 0 -5 -4 -7 -10 -3 -5 3 -18 -3 -29 -14 -11 -11 -21 -18 -23 -15
-6 5 -716 -712 -758 -766 -37 -47 -72 -97 -193 -280 -42 -63 -96 -142 -120
-175 -38 -51 -74 -115 -150 -260 -64 -121 -167 -351 -167 -371 0 -9 -18 -60
-41 -113 -23 -52 -46 -120 -51 -151 -6 -30 -23 -91 -39 -135 -15 -44 -33 -102
-39 -130 -6 -27 -22 -86 -35 -130 -75 -254 -85 -381 -85 -1105 0 -583 9 -774
39 -854 6 -15 22 -80 35 -144 22 -102 48 -191 108 -362 9 -25 26 -79 38 -120
32 -108 127 -290 152 -290 4 0 8 -5 8 -11 0 -16 149 -167 211 -214 31 -23 108
-65 170 -93 l114 -52 195 1 c244 1 260 2 260 13 0 4 7 6 15 3 8 -4 17 -2 20 4
4 5 11 7 16 4 5 -4 9 -1 9 5 0 7 7 10 15 6 8 -3 15 -2 15 3 0 8 56 25 73 22 4
0 7 3 7 9 0 5 7 7 15 4 8 -4 15 -2 15 4 0 6 9 8 20 5 11 -3 20 -1 20 4 0 5 11
10 24 11 34 2 159 69 200 105 12 10 52 34 90 53 88 45 152 89 189 131 17 19
49 43 71 55 56 28 538 508 576 573 16 28 52 73 80 100 29 28 78 89 111 137 32
47 63 89 69 93 6 3 8 11 5 16 -4 5 -2 9 4 9 13 0 74 89 74 107 0 7 4 13 9 13
5 0 6 4 3 10 -3 5 -2 10 4 10 5 0 12 9 16 20 3 10 24 40 45 66 22 26 49 73 61
103 12 31 33 70 45 88 13 17 53 91 89 165 35 73 68 138 72 143 5 6 9 15 11 20
1 6 13 42 27 80 29 84 28 78 26 88 0 4 4 7 11 7 6 0 9 3 5 6 -3 4 0 19 9 35 8
16 12 29 8 29 -4 0 -1 6 5 13 6 8 8 17 4 20 -3 4 -1 7 5 7 6 0 9 7 6 15 -4 8
-1 15 6 15 6 0 8 4 5 10 -3 6 -1 10 5 10 6 0 8 5 5 10 -3 6 -1 10 5 10 7 0 10
7 6 15 -3 8 -1 15 5 15 6 0 9 7 5 15 -3 8 -1 15 4 15 6 0 9 3 8 8 -1 4 6 24
15 44 9 21 30 99 46 173 17 75 35 144 40 154 6 10 17 74 25 143 9 68 20 138
25 154 5 16 19 75 32 132 12 56 26 102 31 102 5 0 7 4 4 9 -4 5 0 40 8 78 9
37 21 94 27 127 7 32 18 63 24 70 6 6 10 17 7 24 -2 6 1 12 6 12 6 0 8 9 5 20
-3 12 0 20 6 20 7 0 9 5 6 10 -3 6 -3 16 2 23 4 6 8 15 9 20 1 4 2 8 4 10 1 1
3 11 5 21 2 10 9 22 15 26 7 4 11 10 10 14 0 4 16 41 36 84 33 69 54 94 213
249 96 95 183 176 193 179 10 3 18 10 18 16 0 6 3 8 6 5 4 -3 16 -1 28 5 11 7
24 13 29 14 4 1 8 2 10 4 1 1 9 3 18 5 8 1 49 17 90 35 50 22 88 32 117 31 23
0 42 2 42 6 0 5 78 5 172 2 165 -6 248 -19 276 -41 6 -6 12 -7 12 -4 0 4 14
-3 31 -15 17 -12 64 -32 104 -44 73 -23 76 -25 233 -180 158 -155 160 -157
217 -273 32 -64 73 -134 92 -155 18 -20 33 -34 33 -31 0 4 7 1 15 -6 8 -6 29
-20 47 -29 18 -10 60 -34 92 -54 54 -33 67 -37 129 -37 43 0 66 4 62 10 -3 6
-2 10 4 10 5 0 9 18 7 40 -2 22 0 40 5 40 4 0 6 9 4 20 -2 11 1 22 6 25 5 4 7
10 4 14 -2 5 5 28 17 52 12 24 23 50 24 58 2 8 6 17 11 20 4 3 8 11 8 16 1 33
41 120 74 157 20 24 61 79 89 123 46 70 52 85 52 133 l0 54 -85 86 c-46 47
-89 98 -96 114 -6 15 -16 28 -21 28 -5 0 -6 5 -3 10 3 6 -1 13 -9 16 -9 3 -13
10 -10 15 3 5 0 9 -6 9 -6 0 -8 5 -5 10 3 6 1 10 -5 10 -6 0 -8 5 -5 10 3 6 2
10 -2 10 -5 0 -9 18 -8 40 1 22 -3 40 -7 40 -11 0 -6 54 7 62 7 5 6 8 -1 8 -8
0 -9 16 -3 53 13 84 18 95 49 127 l31 31 67 -66 c37 -37 84 -97 104 -133 85
-153 85 -153 73 -282 -14 -163 -11 -187 28 -210 17 -10 38 -24 45 -30 6 -6 12
-7 12 -3 0 4 14 -8 30 -27 16 -19 30 -39 30 -43 0 -4 10 -19 23 -33 19 -20 34
-25 85 -28 34 -1 62 1 62 6 0 4 3 7 8 7 4 -1 9 -1 12 1 3 1 16 3 30 6 14 2 32
7 40 10 30 12 203 3 241 -13 22 -8 39 -19 39 -23 0 -4 12 -13 28 -19 31 -13
160 -131 143 -131 -6 0 -26 -14 -44 -31 -17 -17 -52 -45 -77 -63 -43 -29 -50
-31 -135 -30 -107 1 -155 6 -161 16 -3 4 -11 5 -19 1 -8 -3 -15 0 -15 7 0 6
-4 8 -10 5 -5 -3 -10 -1 -10 6 0 7 -3 9 -6 6 -4 -4 -15 3 -25 15 -11 11 -19
17 -19 13 0 -4 -9 2 -20 15 -11 13 -20 21 -20 19 0 -3 -29 23 -64 58 -58 56
-69 63 -105 63 -32 0 -47 -7 -74 -34 -45 -45 -150 -223 -140 -238 2 -5 -1 -8
-7 -8 -7 0 -10 -7 -6 -15 3 -8 1 -15 -5 -15 -6 0 -9 -7 -5 -15 3 -8 1 -15 -5
-15 -6 0 -8 -9 -4 -20 4 -12 2 -20 -5 -20 -6 0 -8 -11 -6 -25 3 -14 2 -25 -2
-25 -4 0 -6 -118 -4 -262 3 -291 4 -299 75 -448 57 -123 85 -159 234 -311 73
-75 133 -139 133 -143 0 -26 -62 -96 -85 -96 -54 1 -237 158 -338 290 -23 30
-53 66 -67 80 -31 31 -43 57 -64 138 -9 35 -27 85 -40 110 -37 73 -56 149 -62
247 -9 133 -14 139 -99 143 -79 3 -120 -10 -174 -55 -77 -63 -169 -166 -192
-213 -13 -27 -26 -50 -29 -50 -8 0 -9 -22 -9 -269 0 -263 2 -273 106 -471 61
-116 147 -251 165 -258 5 -2 8 -10 8 -18 0 -8 5 -14 10 -14 6 0 10 -7 10 -15
0 -8 9 -20 20 -27 11 -7 20 -18 20 -25 0 -7 4 -13 9 -13 5 0 12 -11 15 -25 4
-14 11 -25 17 -25 6 0 8 -4 4 -9 -3 -5 1 -16 9 -24 8 -8 13 -17 10 -20 -8 -8
25 -67 37 -67 6 0 8 -4 5 -8 -3 -5 6 -25 20 -45 14 -20 22 -37 19 -37 -3 0 1
-13 10 -30 8 -16 16 -33 16 -37 1 -5 6 -17 12 -28 6 -11 12 -25 13 -31 1 -6
16 -39 34 -75 18 -35 34 -77 37 -94 3 -16 8 -32 11 -35 8 -6 14 -36 13 -67 -1
-13 4 -23 9 -23 5 0 7 -7 4 -15 -8 -19 15 -145 26 -145 5 0 7 -141 6 -313 -2
-287 -4 -318 -24 -389 -12 -42 -27 -89 -34 -105 -6 -15 -10 -31 -10 -36 1 -4
-3 -26 -9 -50 -6 -23 -10 -50 -10 -59 0 -10 -4 -18 -9 -18 -5 0 -7 -12 -4 -26
3 -14 1 -31 -4 -38 -5 -6 -8 -23 -7 -38 1 -16 -2 -28 -7 -28 -5 0 -6 -5 -3
-10 3 -6 1 -10 -5 -10 -6 0 -9 -4 -5 -9 3 -5 1 -12 -5 -16 -6 -4 -8 -11 -5
-16 4 -5 2 -9 -3 -9 -9 0 -27 -47 -24 -62 1 -5 -2 -8 -8 -8 -5 0 -10 -7 -10
-15 0 -8 -4 -15 -8 -15 -8 0 -23 -30 -46 -90 -3 -8 -26 -46 -51 -85 -25 -38
-58 -95 -74 -126 -16 -30 -36 -61 -45 -68 -9 -8 -16 -20 -16 -27 0 -8 -4 -14
-9 -14 -5 0 -13 -10 -17 -22 -4 -13 -28 -45 -55 -73 -26 -27 -61 -68 -77 -90
-36 -48 -472 -481 -472 -469 0 5 -5 1 -11 -8 -5 -10 -15 -18 -21 -18 -6 0 -46
-35 -89 -79 -43 -43 -80 -76 -83 -73 -9 9 -296 -282 -291 -295 2 -7 1 -13 -3
-13 -13 0 -14 -435 -1 -466 5 -15 52 -70 103 -121 70 -70 109 -100 159 -123
l66 -31 228 5 c253 6 254 6 268 16 6 4 18 6 28 5 9 -2 17 1 17 6 0 4 6 6 14 3
8 -3 25 2 38 10 14 9 28 13 31 9 4 -3 7 0 7 7 0 7 3 10 6 7 4 -3 16 -1 28 5
11 7 24 13 29 14 4 1 10 3 15 4 4 1 10 2 15 1 4 0 7 3 7 8 0 5 11 8 25 5 14
-2 25 -1 25 4 0 5 6 9 13 10 14 1 51 10 55 12 2 3 7 4 40 15 12 4 22 12 22 17
0 5 5 6 10 3 6 -3 10 -1 10 6 0 7 3 10 6 6 3 -3 25 5 49 18 23 13 45 21 49 18
3 -4 6 0 6 7 0 7 3 10 7 7 3 -4 12 -2 20 4 7 6 13 9 13 5 0 -4 13 0 30 9 16 8
32 15 35 15 22 1 65 14 65 21 0 5 7 9 15 9 20 0 105 42 105 52 0 4 7 8 15 8 8
0 15 5 15 10 0 6 3 9 8 8 13 -3 62 25 62 35 0 6 3 7 6 4 6 -6 63 20 74 34 5 6
71 42 80 44 24 4 50 18 50 26 0 6 5 7 10 4 6 -3 13 0 16 8 3 9 19 21 35 27 16
7 29 16 29 20 0 5 15 13 33 19 18 6 46 23 63 39 16 15 49 36 72 46 23 11 42
23 42 28 0 4 6 8 14 8 8 0 17 7 20 16 4 9 9 14 12 11 5 -4 45 28 107 87 10 10
25 19 31 20 7 1 36 26 64 55 29 30 52 51 52 48 0 -3 12 5 26 18 15 14 33 25
40 25 8 0 14 5 14 10 0 6 4 10 9 10 11 0 420 408 415 413 -2 2 10 18 26 36 17
18 30 36 30 41 0 5 25 35 56 67 31 32 74 82 96 111 22 29 46 56 54 59 8 3 14
11 14 19 0 7 6 17 13 21 6 4 25 34 41 66 16 31 32 57 37 57 5 0 9 4 9 10 0 5
31 58 68 117 37 60 79 130 92 156 14 27 35 60 47 73 12 13 20 24 17 24 -3 0 3
12 14 27 28 40 92 170 112 228 10 28 33 84 53 125 19 41 43 98 53 125 9 28 32
82 49 120 18 39 44 122 59 185 15 63 43 162 61 220 37 113 71 269 81 365 3 33
8 346 11 695 6 738 1 819 -68 1095 -39 158 -62 237 -79 280 -11 28 -28 88 -39
135 -11 47 -36 122 -55 167 -19 45 -38 99 -42 120 -17 92 -236 521 -318 625
-31 38 -119 177 -182 287 -21 36 -54 83 -74 105 -20 23 -53 66 -73 96 -20 30
-193 211 -384 402 -288 286 -358 351 -408 376 -33 17 -76 46 -95 66 -40 43
-293 211 -430 287 -250 138 -535 266 -737 330 -71 22 -175 58 -232 80 -104 40
-151 49 -361 68 -57 6 -106 15 -108 21 -2 5 -7 8 -12 5 -4 -3 -25 2 -46 11
-36 16 -98 24 -279 40 -67 6 -1014 12 -1019 6z m3314 -1724 c0 -5 3 -7 8 -5 4
2 18 -8 32 -21 14 -14 19 -22 13 -18 -9 5 -12 1 -11 -11 6 -38 -76 -167 -162
-256 -118 -123 -169 -151 -278 -150 -29 0 -49 6 -63 19 -20 21 -34 84 -18 84
5 0 9 8 9 18 0 10 13 38 29 63 38 59 252 267 282 273 49 11 65 13 112 13 26 0
47 -4 47 -9z"/>
<path d="M5785 7079 c-33 -3 -68 -9 -78 -14 -43 -19 -117 -115 -131 -170 -11
-39 -7 -190 4 -221 13 -33 78 -102 114 -121 24 -13 62 -16 171 -16 77 0 147 2
155 4 22 6 90 71 106 102 20 37 18 286 -2 294 -8 3 -12 8 -9 13 2 4 -21 29
-51 56 -30 27 -61 54 -68 61 -15 14 -128 20 -211 12z"/>
<path d="M6420 4570 c-8 -5 -11 -10 -6 -10 5 0 1 -9 -9 -20 -10 -11 -15 -20
-11 -20 3 0 -2 -12 -11 -27 -10 -15 -18 -30 -17 -33 0 -3 -5 -20 -13 -37 -7
-18 -12 -36 -11 -40 3 -12 -38 -99 -63 -134 -12 -17 -43 -72 -68 -122 -42 -81
-97 -181 -142 -256 -8 -13 -21 -32 -29 -42 -26 -30 -34 -43 -55 -84 -11 -21
-34 -55 -52 -74 -17 -19 -30 -39 -27 -43 3 -4 0 -8 -5 -8 -6 0 -31 -30 -55
-67 -43 -66 -375 -405 -441 -450 -17 -12 -48 -37 -69 -57 -22 -19 -43 -33 -48
-30 -4 3 -11 -2 -14 -10 -3 -9 -10 -13 -15 -10 -5 3 -9 0 -9 -6 0 -6 -5 -8
-10 -5 -6 3 -13 -1 -16 -9 -3 -9 -10 -13 -15 -10 -5 3 -9 0 -9 -6 0 -6 -5 -8
-10 -5 -6 3 -13 -1 -16 -9 -3 -9 -10 -13 -15 -10 -5 3 -12 -2 -15 -10 -3 -9
-11 -16 -18 -16 -6 0 -24 -13 -39 -29 -15 -17 -36 -33 -47 -36 -11 -4 -20 -11
-20 -16 0 -6 -4 -8 -9 -4 -5 3 -12 1 -16 -5 -3 -5 -15 -10 -26 -10 -11 0 -22
-7 -25 -15 -4 -8 -10 -13 -14 -10 -4 3 -19 -4 -33 -15 -13 -11 -56 -36 -93
-56 -38 -20 -87 -47 -109 -59 -22 -13 -64 -33 -94 -45 -30 -11 -74 -30 -97
-41 -24 -10 -46 -19 -49 -19 -4 0 -57 -24 -118 -54 -110 -53 -330 -135 -374
-138 -13 -2 -23 -5 -23 -8 0 -6 -65 -32 -75 -30 -3 0 -13 -6 -21 -15 -9 -8
-19 -13 -24 -10 -5 3 -10 0 -12 -6 -2 -6 -18 -12 -36 -14 -18 -1 -35 -5 -38
-8 -3 -3 -12 -3 -20 0 -8 3 -14 0 -14 -7 0 -6 -4 -8 -10 -5 -5 3 -16 3 -22 -2
-7 -4 -18 -8 -25 -9 -6 -1 -49 -19 -95 -39 -88 -39 -267 -97 -358 -116 -30 -6
-60 -15 -66 -20 -6 -5 -14 -6 -17 -2 -4 3 -7 1 -7 -6 0 -7 -4 -9 -10 -6 -5 3
-10 1 -10 -5 0 -6 -4 -9 -9 -5 -5 3 -12 1 -16 -5 -4 -6 -11 -8 -16 -5 -5 4 -9
1 -9 -5 0 -7 -7 -10 -15 -6 -8 3 -15 1 -15 -5 0 -6 -4 -8 -9 -4 -5 3 -12 1
-16 -5 -4 -6 -11 -8 -16 -5 -5 4 -9 2 -9 -4 0 -6 -6 -8 -14 -5 -7 3 -20 -2
-29 -10 -8 -8 -17 -13 -20 -10 -6 7 -264 -76 -330 -106 -26 -11 -51 -18 -56
-15 -5 3 -12 1 -16 -5 -3 -5 -18 -10 -33 -10 -15 0 -46 -9 -70 -20 -23 -10
-42 -17 -42 -14 0 2 -11 -3 -25 -12 -14 -9 -25 -14 -25 -10 0 3 -20 -6 -45
-19 -25 -14 -47 -25 -50 -25 -3 0 -6 0 -7 -1 -2 -1 -14 -2 -28 -3 -60 -6 -107
-19 -180 -52 -43 -19 -83 -34 -89 -34 -7 0 -60 -19 -119 -41 -280 -109 -341
-133 -392 -156 -30 -14 -84 -36 -120 -49 -36 -14 -94 -42 -130 -64 -36 -21
-94 -50 -130 -63 -77 -29 -328 -150 -385 -186 -22 -14 -76 -43 -120 -66 -110
-56 -276 -153 -297 -174 -17 -16 -21 -36 -19 -80 l1 -24 113 5 c99 4 123 9
202 40 50 19 139 45 199 58 60 12 137 33 171 45 34 13 95 26 136 30 41 4 119
18 174 32 92 23 158 31 385 48 47 4 101 11 120 16 153 37 233 58 278 73 48 16
84 18 330 14 270 -4 279 -5 362 -32 147 -48 184 -60 205 -63 48 -7 105 -26
105 -36 0 -6 3 -8 6 -4 4 3 28 -5 55 -19 27 -13 50 -24 51 -23 10 5 129 -75
174 -117 13 -12 25 -20 27 -18 9 9 176 -175 197 -216 38 -77 56 -90 121 -90
67 0 78 8 116 84 14 28 46 74 72 103 52 58 102 117 128 151 38 47 380 383 423
414 25 18 51 40 58 50 7 10 20 18 28 18 8 0 14 4 14 9 0 5 17 15 37 22 48 15
99 45 146 85 21 17 64 41 95 53 31 12 80 34 107 50 75 44 204 111 212 110 3 0
10 6 15 15 5 9 13 14 19 11 5 -4 9 -1 9 5 0 6 5 8 10 5 6 -3 10 -1 10 4 0 6 9
11 20 11 11 0 20 5 20 11 0 5 5 7 10 4 6 -3 10 -1 10 5 0 6 5 8 10 5 6 -3 10
-1 10 5 0 6 4 9 9 6 5 -3 12 1 15 9 3 8 9 14 13 13 9 -3 64 31 74 45 3 5 10 8
15 8 16 -1 44 10 44 18 0 4 6 8 13 8 25 0 184 104 247 161 36 32 79 66 95 75
32 18 395 381 458 459 20 26 56 78 78 117 22 39 45 71 50 71 5 0 9 7 9 15 0 9
7 18 15 21 8 4 12 10 9 15 -3 5 0 9 6 9 6 0 8 5 5 10 -3 6 -1 10 4 10 6 0 11
9 11 20 0 11 5 20 11 20 5 0 7 5 4 10 -3 6 -1 10 5 10 7 0 10 7 6 15 -3 8 -1
15 4 15 11 0 31 45 65 140 12 36 32 84 43 106 11 22 26 69 32 105 18 94 36
176 55 244 14 50 18 115 20 403 1 199 -2 342 -7 342 -5 0 -7 4 -4 9 5 8 -9
202 -17 241 -18 87 -83 135 -137 100z"/>
</g>
</svg>
